<?xml version="1.0" standalone="no"?>
<!DOCTYPE svg PUBLIC "-//W3C//DTD SVG 20010904//EN"
"http://www.w3.org/TR/2001/REC-SVG-20010904/DTD/svg10.dtd"
[
 <!ATTLIST svg
  xmlns:xlink CDATA #FIXED "http://www.w3.org/1999/xlink">
]>
<!-- Created with Sodipodi ("http://www.sodipodi.com/") -->
<svg
   id="svg1"
   sodipodi:version="0.27"
   width="210mm"
   height="297mm"
   sodipodi:docbase="/home/fez/edmundd/usefulinc/software/gtk/btctl/pixmaps/"
   sodipodi:docname="/home/fez/edmundd/usefulinc/software/gtk/btctl/pixmaps/blueradio.svg"
   xmlns="http://www.w3.org/2000/svg"
   xmlns:sodipodi="http://sodipodi.sourceforge.net/DTD/sodipodi-0.dtd"
   xmlns:xlink="http://www.w3.org/1999/xlink">
  <defs
     id="defs3">
    <linearGradient
       id="linearGradient76">
      <stop
         style="stop-color:#000;stop-opacity:1;"
         offset="0"
         id="stop77" />
      <stop
         style="stop-color:#fff;stop-opacity:1;"
         offset="1"
         id="stop78" />
    </linearGradient>
    <linearGradient
       xlink:href="#linearGradient76"
       id="linearGradient79" />
  </defs>
  <sodipodi:namedview
     id="base"
     showgrid="true"
     snaptogrid="true"
     snaptoguides="true" />
  <path
     transform="matrix(1.99998,0,0,1.99999,-265.744,-894.96)"
     style="font-size:12;fill:none;fill-rule:evenodd;stroke:#0000ff;stroke-width:5.00004;stroke-linecap:round;"
     d="M 220.335 885.083 C 210.074 874.77 210.012 858.123 220.196 847.735 C 230.381 837.346 247.025 837.078 257.54 847.132 C 268.054 857.187 268.53 873.826 258.607 884.465 "
     id="path87"
     sodipodi:nodetypes="ccccc" />
  <path
     style="fill:none;fill-rule:evenodd;stroke:#0000ff;stroke-opacity:1;stroke-width:7.66284;stroke-linejoin:round;stroke-linecap:round;fill-opacity:1;"
     d="M 161.059 948.271 C 161.059 948.271 207.873 877.405 207.873 877.405 C 207.873 877.405 254.686 948.271 254.686 948.271 C 254.686 948.271 161.059 948.271 161.059 948.271 z "
     id="path75"
     transform="matrix(1.13535,0,0,1.5,-23.4091,-476.344)"
     sodipodi:nodetypes="cccc" />
  <path
     transform="matrix(1.5,0,0,1.5,-106.299,-419.882)"
     style="font-size:12;fill:none;fill-rule:evenodd;stroke:#0000ff;stroke-width:6.49998;stroke-linecap:round;"
     d="M 196.993 848.151 C 193.004 840.728 194.795 831.523 201.276 826.138 C 207.757 820.752 217.134 820.677 223.701 825.957 C 230.267 831.238 232.206 840.413 228.337 847.899 "
     id="path112"
     sodipodi:nodetypes="ccccc" />
  <path
     transform="matrix(1,0,0,1.0115,3.59797,-4.78308)"
     style="font-size:12;fill:none;fill-rule:evenodd;stroke:#0000ff;stroke-width:10.0051;stroke-linecap:round;"
     d="M 155.203 899.831 C 127.588 877.561 117.014 840.705 128.729 807.473 C 140.444 774.242 171.954 751.763 207.621 751.192 C 243.289 750.621 275.522 772.08 288.324 804.919 C 301.126 837.757 291.771 874.932 264.903 898.075 "
     id="path111"
     sodipodi:nodetypes="cccccc" />
</svg>
